<svg width="123" height="33" viewBox="0 0 123 33" fill="black" xmlns="http://www.w3.org/2000/svg">
<path d="M52.6203 10.2542C51.7576 7.4914 51.3425 4.5844 51.4483 1.5939L58.7166 1.8216C58.2608 14.7779 70.6649 25.7152 86.3899 26.201C94.0733 26.4363 101.374 24.1744 106.941 19.8253C112.395 15.5597 115.512 9.79879 115.732 3.59009L123 3.8178C122.707 11.9771 118.662 19.5065 111.613 25.0245C104.671 30.4438 95.6279 33.2749 86.1457 32.9789C69.9568 32.478 56.5678 22.8993 52.6203 10.2542Z" fill="black"/>
<path d="M1.18871 8.73618C0.309678 5.92026 -0.0891433 2.99048 0.0166662 -1.1445e-05L7.28497 0.227691C7.06521 6.43638 9.77557 12.3794 14.9033 16.9714C20.1449 21.6545 27.2667 24.3718 34.9501 24.6071C42.6335 24.8423 49.9344 22.5805 55.5016 18.2314C60.9549 13.9658 64.0722 8.20487 64.2919 1.99618L71.5603 2.22388C71.2672 10.3832 67.2221 17.9126 60.1735 23.4306C53.2308 28.8575 44.1881 31.6886 34.7059 31.3926C25.2238 31.0966 16.4009 27.719 9.8651 21.8746C5.65713 18.1024 2.71074 13.6014 1.18871 8.73618Z" fill="black"/>
</svg>
