<svg width="1156" height="349" viewBox="0 0 1156 349" fill="none" xmlns="http://www.w3.org/2000/svg">
<path d="M1.44 345H10.476V343.254H3.492V339.15H10.08V337.422H3.492V333.696H10.476V331.95H1.44V345Z" fill="black"/>
<path d="M19.2022 336.738C18.6082 335.73 17.6182 335.136 16.1782 335.136C13.9282 335.136 12.0022 337.008 12.0022 340.176C12.0022 343.344 13.9282 345.234 16.1782 345.234C17.6182 345.234 18.6082 344.64 19.2022 343.632V345H21.0742V331.95H19.2022V336.738ZM19.2742 340.176C19.2742 342.57 18.0502 343.668 16.6102 343.668C15.0442 343.668 14.0002 342.354 14.0002 340.176C14.0002 337.998 15.0442 336.702 16.6102 336.702C18.0502 336.702 19.2742 337.782 19.2742 340.176Z" fill="black"/>
<path d="M29.5778 345H31.4678V335.316H29.5958V340.572C29.5958 342.498 28.8398 343.65 27.2558 343.65C25.5638 343.65 25.3298 342.354 25.3298 340.968V335.316H23.4578V341.472C23.4578 343.83 24.3398 345.234 26.6258 345.234C28.0838 345.234 29.0198 344.622 29.5778 343.632V345Z" fill="black"/>
<path d="M37.9869 335.136C35.1249 335.136 33.3069 337.314 33.3069 340.176C33.3069 343.11 35.0529 345.234 37.8609 345.234C40.0029 345.234 41.8749 343.812 42.2709 341.778H40.3809C40.1109 342.93 39.1029 343.632 37.8969 343.632C36.5469 343.632 35.3049 342.552 35.3049 340.158C35.3049 337.8 36.5469 336.738 37.8969 336.738C39.1209 336.738 40.1109 337.494 40.3089 338.592H42.1809C41.8929 336.702 40.2009 335.136 37.9869 335.136Z" fill="black"/>
<path d="M50.0756 341.094C50.0756 343.02 48.8516 343.794 47.3216 343.794C46.1696 343.794 45.4856 343.236 45.4856 342.354C45.4856 341.112 47.0696 340.68 50.0756 340.392V341.094ZM46.9076 345.234C48.4916 345.234 49.5716 344.712 50.1476 343.722C50.2016 344.352 50.2376 344.622 50.3096 345H52.1096C51.9296 344.136 51.8396 342.966 51.8396 341.508C51.8396 341.094 51.8756 339.42 51.8756 339.186C51.8936 336.288 50.4716 335.082 47.9696 335.082C45.7556 335.082 44.0456 336.306 43.9016 338.376H45.7916C45.8636 337.17 46.6016 336.522 47.8976 336.522C49.0856 336.522 49.9856 337.098 49.9856 338.808V339.006C46.2416 339.384 43.4516 340.032 43.4516 342.39C43.4516 344.154 44.9456 345.234 46.9076 345.234Z" fill="black"/>
<path d="M54.5657 335.316H53.0897V336.738H54.5657V342.516C54.5657 344.514 54.9977 345 56.9597 345H58.3277V343.506H57.5357C56.5997 343.506 56.4377 343.254 56.4377 342.264V336.738H58.3457V335.316H56.4377V332.832H54.5657V335.316Z" fill="black"/>
<path d="M60.3401 335.316V345H62.2121V335.316H60.3401ZM60.3401 331.95V334.02H62.2121V331.95H60.3401Z" fill="black"/>
<path d="M66.0666 340.194C66.0666 337.746 67.3806 336.72 68.7846 336.72C70.2246 336.72 71.5206 337.8 71.5206 340.194C71.5206 342.552 70.2246 343.65 68.7846 343.65C67.3806 343.65 66.0666 342.57 66.0666 340.194ZM68.7846 335.136C66.4986 335.136 64.0866 336.684 64.0866 340.194C64.0866 343.686 66.4986 345.234 68.7846 345.234C71.0886 345.234 73.5006 343.686 73.5006 340.194C73.5006 336.684 71.0886 335.136 68.7846 335.136Z" fill="black"/>
<path d="M77.2414 335.316H75.3694V345H77.2414V339.798C77.2414 337.854 78.0154 336.702 79.6534 336.702C81.4354 336.702 81.6514 338.016 81.6514 339.402V345H83.5234V338.898C83.5234 336.648 82.6234 335.136 80.2834 335.136C78.7714 335.136 77.7994 335.766 77.2414 336.72V335.316Z" fill="black"/>
<path d="M91.9115 341.094C91.9115 343.02 90.6875 343.794 89.1575 343.794C88.0055 343.794 87.3215 343.236 87.3215 342.354C87.3215 341.112 88.9055 340.68 91.9115 340.392V341.094ZM88.7435 345.234C90.3275 345.234 91.4075 344.712 91.9835 343.722C92.0375 344.352 92.0735 344.622 92.1455 345H93.9455C93.7655 344.136 93.6755 342.966 93.6755 341.508C93.6755 341.094 93.7115 339.42 93.7115 339.186C93.7295 336.288 92.3075 335.082 89.8055 335.082C87.5915 335.082 85.8815 336.306 85.7375 338.376H87.6275C87.6995 337.17 88.4375 336.522 89.7335 336.522C90.9215 336.522 91.8215 337.098 91.8215 338.808V339.006C88.0775 339.384 85.2875 340.032 85.2875 342.39C85.2875 344.154 86.7815 345.234 88.7435 345.234Z" fill="black"/>
<path d="M97.8957 331.95H96.0237V345H97.8957V331.95Z" fill="black"/>
<path d="M104.817 331.95V345H106.869V339.942H109.011C112.161 339.942 114.483 339.222 114.483 335.964C114.483 332.544 112.035 331.95 109.011 331.95H104.817ZM109.083 333.642C110.865 333.642 112.359 333.858 112.359 335.982C112.359 337.998 110.937 338.214 109.137 338.214H106.869V333.642H109.083Z" fill="black"/>
<path d="M120.909 335.298C120.747 335.28 120.549 335.28 120.387 335.28C119.163 335.298 118.209 335.928 117.705 337.026V335.316H115.869V345H117.741V339.924C117.741 337.89 118.497 337.188 119.937 337.188C120.243 337.188 120.567 337.206 120.909 337.242V335.298Z" fill="black"/>
<path d="M123.547 340.194C123.547 337.746 124.861 336.72 126.265 336.72C127.705 336.72 129.001 337.8 129.001 340.194C129.001 342.552 127.705 343.65 126.265 343.65C124.861 343.65 123.547 342.57 123.547 340.194ZM126.265 335.136C123.979 335.136 121.567 336.684 121.567 340.194C121.567 343.686 123.979 345.234 126.265 345.234C128.569 345.234 130.981 343.686 130.981 340.194C130.981 336.684 128.569 335.136 126.265 335.136Z" fill="black"/>
<path d="M139.434 336.738C138.84 335.73 137.886 335.136 136.446 335.136C134.196 335.136 132.324 336.9 132.324 339.978C132.324 343.074 134.196 344.838 136.446 344.838C137.886 344.838 138.84 344.244 139.434 343.236V344.262C139.434 345.27 139.236 345.756 138.858 346.17C138.444 346.638 137.796 346.872 136.914 346.872C135.492 346.872 134.952 346.35 134.754 345.468H132.828C133.134 347.502 134.7 348.438 136.878 348.438C138.372 348.438 139.524 348.042 140.262 347.268C140.928 346.602 141.306 345.648 141.306 343.866V335.316H139.434V336.738ZM139.506 339.978C139.506 342.282 138.318 343.308 136.878 343.308C135.312 343.308 134.322 342.084 134.322 339.978C134.322 337.89 135.312 336.684 136.878 336.684C138.318 336.684 139.506 337.674 139.506 339.978Z" fill="black"/>
<path d="M148.841 335.298C148.679 335.28 148.481 335.28 148.319 335.28C147.095 335.298 146.141 335.928 145.637 337.026V335.316H143.801V345H145.673V339.924C145.673 337.89 146.429 337.188 147.869 337.188C148.175 337.188 148.499 337.206 148.841 337.242V335.298Z" fill="black"/>
<path d="M156.019 341.094C156.019 343.02 154.795 343.794 153.265 343.794C152.113 343.794 151.429 343.236 151.429 342.354C151.429 341.112 153.013 340.68 156.019 340.392V341.094ZM152.851 345.234C154.435 345.234 155.515 344.712 156.091 343.722C156.145 344.352 156.181 344.622 156.253 345H158.053C157.873 344.136 157.783 342.966 157.783 341.508C157.783 341.094 157.819 339.42 157.819 339.186C157.837 336.288 156.415 335.082 153.913 335.082C151.699 335.082 149.989 336.306 149.845 338.376H151.735C151.807 337.17 152.545 336.522 153.841 336.522C155.029 336.522 155.929 337.098 155.929 338.808V339.006C152.185 339.384 149.395 340.032 149.395 342.39C149.395 344.154 150.889 345.234 152.851 345.234Z" fill="black"/>
<path d="M162.003 339.798C162.003 337.854 162.723 336.702 164.235 336.702C165.909 336.702 166.143 338.016 166.143 339.402V345H168.015V339.798C168.015 337.854 168.753 336.702 170.247 336.702C171.921 336.702 172.155 338.016 172.155 339.402V345H174.027V338.898C174.027 336.648 173.145 335.136 170.877 335.136C169.599 335.136 168.483 335.622 167.673 336.846C167.241 335.766 166.377 335.136 164.865 335.136C163.479 335.136 162.561 335.766 162.003 336.72V335.316H160.131V345H162.003V339.798Z" fill="black"/>
<path d="M180.952 335.316H179.602V336.738H180.952V345H182.824V336.738H184.696V335.316H182.824V334.65C182.824 333.642 183.022 333.444 183.976 333.444H184.696V331.95H183.85C181.6 331.95 180.952 332.526 180.952 334.668V335.316Z" fill="black"/>
<path d="M187.496 340.194C187.496 337.746 188.81 336.72 190.214 336.72C191.654 336.72 192.95 337.8 192.95 340.194C192.95 342.552 191.654 343.65 190.214 343.65C188.81 343.65 187.496 342.57 187.496 340.194ZM190.214 335.136C187.928 335.136 185.516 336.684 185.516 340.194C185.516 343.686 187.928 345.234 190.214 345.234C192.518 345.234 194.93 343.686 194.93 340.194C194.93 336.684 192.518 335.136 190.214 335.136Z" fill="black"/>
<path d="M201.839 335.298C201.677 335.28 201.479 335.28 201.317 335.28C200.093 335.298 199.139 335.928 198.635 337.026V335.316H196.799V345H198.671V339.924C198.671 337.89 199.427 337.188 200.867 337.188C201.173 337.188 201.497 337.206 201.839 337.242V335.298Z" fill="black"/>
<path d="M216.773 340.752C216.359 342.48 215.117 343.524 213.173 343.524C210.923 343.524 209.249 341.67 209.249 338.448C209.249 335.19 210.941 333.426 213.155 333.426C215.081 333.426 216.305 334.488 216.719 336.198H218.699C218.177 333.336 216.035 331.716 213.245 331.716C209.501 331.716 207.143 334.362 207.143 338.448C207.143 342.462 209.339 345.234 213.119 345.234C216.035 345.234 218.177 343.632 218.753 340.752H216.773Z" fill="black"/>
<path d="M225.64 335.298C225.478 335.28 225.28 335.28 225.118 335.28C223.894 335.298 222.94 335.928 222.436 337.026V335.316H220.6V345H222.472V339.924C222.472 337.89 223.228 337.188 224.668 337.188C224.974 337.188 225.298 337.206 225.64 337.242V335.298Z" fill="black"/>
<path d="M231.032 343.632C229.502 343.632 228.404 342.534 228.206 340.734H235.586C235.784 337.584 234.038 335.136 231.05 335.136C228.296 335.136 226.28 337.134 226.28 340.14C226.28 342.948 227.99 345.234 231.104 345.234C233.552 345.234 235.028 343.758 235.46 342.156H233.57C233.156 343.074 232.4 343.632 231.032 343.632ZM231.032 336.666C232.562 336.666 233.588 337.836 233.642 339.258H228.242C228.512 337.404 229.574 336.666 231.032 336.666Z" fill="black"/>
<path d="M243.382 341.094C243.382 343.02 242.158 343.794 240.628 343.794C239.476 343.794 238.792 343.236 238.792 342.354C238.792 341.112 240.376 340.68 243.382 340.392V341.094ZM240.214 345.234C241.798 345.234 242.878 344.712 243.454 343.722C243.508 344.352 243.544 344.622 243.616 345H245.416C245.236 344.136 245.146 342.966 245.146 341.508C245.146 341.094 245.182 339.42 245.182 339.186C245.2 336.288 243.778 335.082 241.276 335.082C239.062 335.082 237.352 336.306 237.208 338.376H239.098C239.17 337.17 239.908 336.522 241.204 336.522C242.392 336.522 243.292 337.098 243.292 338.808V339.006C239.548 339.384 236.758 340.032 236.758 342.39C236.758 344.154 238.252 345.234 240.214 345.234Z" fill="black"/>
<path d="M247.872 335.316H246.396V336.738H247.872V342.516C247.872 344.514 248.304 345 250.266 345H251.634V343.506H250.842C249.906 343.506 249.744 343.254 249.744 342.264V336.738H251.652V335.316H249.744V332.832H247.872V335.316Z" fill="black"/>
<path d="M253.647 335.316V345H255.519V335.316H253.647ZM253.647 331.95V334.02H255.519V331.95H253.647Z" fill="black"/>
<path d="M258.851 335.316H256.781L260.381 345H262.091L265.673 335.316H263.729L261.299 342.498L258.851 335.316Z" fill="black"/>
<path d="M270.846 343.632C269.316 343.632 268.218 342.534 268.02 340.734H275.4C275.598 337.584 273.852 335.136 270.864 335.136C268.11 335.136 266.094 337.134 266.094 340.14C266.094 342.948 267.804 345.234 270.918 345.234C273.366 345.234 274.842 343.758 275.274 342.156H273.384C272.97 343.074 272.214 343.632 270.846 343.632ZM270.846 336.666C272.376 336.666 273.402 337.836 273.456 339.258H268.056C268.326 337.404 269.388 336.666 270.846 336.666Z" fill="black"/>
<path d="M284.425 345H286.477V333.696H290.653V331.95H280.231V333.696H284.425V345Z" fill="black"/>
<path d="M293.821 331.95H291.949V345H293.821V339.798C293.821 337.854 294.595 336.702 296.233 336.702C298.015 336.702 298.231 338.016 298.231 339.402V345H300.103V338.898C300.103 336.648 299.203 335.136 296.863 335.136C295.351 335.136 294.379 335.766 293.821 336.72V331.95Z" fill="black"/>
<path d="M302.444 335.316V345H304.316V335.316H302.444ZM302.444 331.95V334.02H304.316V331.95H302.444Z" fill="black"/>
<path d="M308.71 335.316H306.838V345H308.71V339.798C308.71 337.854 309.484 336.702 311.122 336.702C312.904 336.702 313.12 338.016 313.12 339.402V345H314.992V338.898C314.992 336.648 314.092 335.136 311.752 335.136C310.24 335.136 309.268 335.766 308.71 336.72V335.316Z" fill="black"/>
<path d="M317.332 331.95V345H319.204V341.832L320.302 340.662L323.38 345H325.612L321.58 339.312L325.342 335.316H323.056L319.204 339.456V331.95H317.332Z" fill="black"/>
<path d="M326.666 335.316V345H328.538V335.316H326.666ZM326.666 331.95V334.02H328.538V331.95H326.666Z" fill="black"/>
<path d="M332.933 335.316H331.061V345H332.933V339.798C332.933 337.854 333.707 336.702 335.345 336.702C337.127 336.702 337.343 338.016 337.343 339.402V345H339.215V338.898C339.215 336.648 338.315 335.136 335.975 335.136C334.463 335.136 333.491 335.766 332.933 336.72V335.316Z" fill="black"/>
<path d="M347.999 336.738C347.405 335.73 346.451 335.136 345.011 335.136C342.761 335.136 340.889 336.9 340.889 339.978C340.889 343.074 342.761 344.838 345.011 344.838C346.451 344.838 347.405 344.244 347.999 343.236V344.262C347.999 345.27 347.801 345.756 347.423 346.17C347.009 346.638 346.361 346.872 345.479 346.872C344.057 346.872 343.517 346.35 343.319 345.468H341.393C341.699 347.502 343.265 348.438 345.443 348.438C346.937 348.438 348.089 348.042 348.827 347.268C349.493 346.602 349.871 345.648 349.871 343.866V335.316H347.999V336.738ZM348.071 339.978C348.071 342.282 346.883 343.308 345.443 343.308C343.877 343.308 342.887 342.084 342.887 339.978C342.887 337.89 343.877 336.684 345.443 336.684C346.883 336.684 348.071 337.674 348.071 339.978Z" fill="black"/>
<path d="M362.632 341.094C362.632 343.02 361.408 343.794 359.878 343.794C358.726 343.794 358.042 343.236 358.042 342.354C358.042 341.112 359.626 340.68 362.632 340.392V341.094ZM359.464 345.234C361.048 345.234 362.128 344.712 362.704 343.722C362.758 344.352 362.794 344.622 362.866 345H364.666C364.486 344.136 364.396 342.966 364.396 341.508C364.396 341.094 364.432 339.42 364.432 339.186C364.45 336.288 363.028 335.082 360.526 335.082C358.312 335.082 356.602 336.306 356.458 338.376H358.348C358.42 337.17 359.158 336.522 360.454 336.522C361.642 336.522 362.542 337.098 362.542 338.808V339.006C358.798 339.384 356.008 340.032 356.008 342.39C356.008 344.154 357.502 345.234 359.464 345.234Z" fill="black"/>
<path d="M368.616 335.316H366.744V345H368.616V339.798C368.616 337.854 369.39 336.702 371.028 336.702C372.81 336.702 373.026 338.016 373.026 339.402V345H374.898V338.898C374.898 336.648 373.998 335.136 371.658 335.136C370.146 335.136 369.174 335.766 368.616 336.72V335.316Z" fill="black"/>
<path d="M383.773 336.738C383.179 335.73 382.189 335.136 380.749 335.136C378.499 335.136 376.573 337.008 376.573 340.176C376.573 343.344 378.499 345.234 380.749 345.234C382.189 345.234 383.179 344.64 383.773 343.632V345H385.645V331.95H383.773V336.738ZM383.845 340.176C383.845 342.57 382.621 343.668 381.181 343.668C379.615 343.668 378.571 342.354 378.571 340.176C378.571 337.998 379.615 336.702 381.181 336.702C382.621 336.702 383.845 337.782 383.845 340.176Z" fill="black"/>
<path d="M401.211 338.466C401.211 342.768 398.655 343.308 396.045 343.308H394.623V333.642H396.045C398.655 333.642 401.211 334.2 401.211 338.466ZM392.571 331.95V345H396.135C400.275 345 403.335 343.506 403.335 338.466C403.335 333.444 400.275 331.95 396.135 331.95H392.571Z" fill="black"/>
<path d="M409.608 343.632C408.078 343.632 406.98 342.534 406.782 340.734H414.162C414.36 337.584 412.614 335.136 409.626 335.136C406.872 335.136 404.856 337.134 404.856 340.14C404.856 342.948 406.566 345.234 409.68 345.234C412.128 345.234 413.604 343.758 414.036 342.156H412.146C411.732 343.074 410.976 343.632 409.608 343.632ZM409.608 336.666C411.138 336.666 412.164 337.836 412.218 339.258H406.818C407.088 337.404 408.15 336.666 409.608 336.666Z" fill="black"/>
<path d="M423.395 338.016C423.017 336.144 421.487 335.118 419.525 335.118C417.419 335.118 415.601 336.162 415.601 337.872C415.601 339.708 416.969 340.338 418.427 340.626L419.885 340.914C420.893 341.112 421.739 341.49 421.739 342.372C421.739 343.236 420.821 343.74 419.597 343.74C418.229 343.74 417.545 343.092 417.275 341.994H415.367C415.601 343.812 417.077 345.234 419.543 345.234C421.775 345.234 423.611 344.118 423.611 342.156C423.611 340.248 421.991 339.654 420.173 339.276L418.787 339.006C417.905 338.808 417.437 338.52 417.437 337.8C417.437 337.008 418.427 336.63 419.345 336.63C420.443 336.63 421.271 337.008 421.541 338.016H423.395Z" fill="black"/>
<path d="M425.49 335.316V345H427.362V335.316H425.49ZM425.49 331.95V334.02H427.362V331.95H425.49Z" fill="black"/>
<path d="M436.329 336.738C435.735 335.73 434.781 335.136 433.341 335.136C431.091 335.136 429.219 336.9 429.219 339.978C429.219 343.074 431.091 344.838 433.341 344.838C434.781 344.838 435.735 344.244 436.329 343.236V344.262C436.329 345.27 436.131 345.756 435.753 346.17C435.339 346.638 434.691 346.872 433.809 346.872C432.387 346.872 431.847 346.35 431.649 345.468H429.723C430.029 347.502 431.595 348.438 433.773 348.438C435.267 348.438 436.419 348.042 437.157 347.268C437.823 346.602 438.201 345.648 438.201 343.866V335.316H436.329V336.738ZM436.401 339.978C436.401 342.282 435.213 343.308 433.773 343.308C432.207 343.308 431.217 342.084 431.217 339.978C431.217 337.89 432.207 336.684 433.773 336.684C435.213 336.684 436.401 337.674 436.401 339.978Z" fill="black"/>
<path d="M442.568 335.316H440.696V345H442.568V339.798C442.568 337.854 443.342 336.702 444.98 336.702C446.762 336.702 446.978 338.016 446.978 339.402V345H448.85V338.898C448.85 336.648 447.95 335.136 445.61 335.136C444.098 335.136 443.126 335.766 442.568 336.72V335.316Z" fill="black"/>
<path d="M220.391 316.711C224.039 297.447 223.735 277.122 218.794 256.872C200.222 180.602 122.89 133.606 46.4447 152.136L51.0056 170.869C117.113 154.841 183.955 195.467 200.019 261.423C204.529 279.979 204.554 298.585 200.804 316.104L220.391 316.711Z" fill="black"/>
<path d="M165.711 17.14C195.407 32.4598 207.063 69.015 191.683 98.6434C176.328 128.272 139.689 139.901 109.993 124.556L101.124 141.67C140.272 161.869 188.591 146.549 208.862 107.492C229.107 68.4336 213.752 20.2242 174.605 0" fill="black"/>
<path d="M68.1341 40.4484L90.2036 26.0134L85.5414 9.32841H4.66221L0 26.0134L22.0695 40.4484V283.467L0 297.877L4.66221 314.562H85.5414L90.2036 297.877L68.1341 283.467V40.4484Z" fill="black"/>
<path d="M489.076 40.4484L511.145 26.0386L506.483 9.35369H425.629L420.967 26.0386L443.037 40.4484V151.909C426.263 138.435 404.219 130.244 380.071 130.244C355.924 130.244 332.765 138.864 315.814 152.945V40.4484L337.884 26.0386L333.221 9.35369H252.367L247.705 26.0386L269.775 40.4484V283.467L247.705 297.877L252.367 314.562H333.221L337.884 297.877L315.814 283.467V181.006C329.218 162.122 353.01 149.533 380.071 149.533C407.133 149.533 429.43 161.338 443.037 179.237V283.467L420.967 297.877L425.629 314.562H506.483L511.145 297.877L489.076 283.467V40.4484Z" fill="black"/>
<path d="M1114.85 284.124V163.816C1128.36 175.9 1136.69 192.458 1136.69 210.685H1156C1156 181.335 1139.68 155.372 1114.83 139.825V43.8865L1136.9 29.4767L1132.23 12.7918H1051.38L1046.72 29.4767L1068.79 43.8865V124.935C1066.2 124.733 1063.59 124.632 1060.93 124.632C1038.84 124.632 1018.49 131.508 1002.32 143.01C986.159 131.508 965.812 124.632 943.717 124.632C943.008 124.632 942.298 124.657 941.589 124.682V43.8865L963.659 29.4767L958.996 12.7918H878.142L873.48 29.4767L895.55 43.8865V136.539C867.526 151.53 848.649 179.161 848.649 210.711H867.956C867.956 190.006 878.7 171.451 895.524 159.19V286.905L873.455 301.315L878.117 318H958.971L963.633 301.315L941.564 286.905V143.946C942.273 143.946 942.983 143.895 943.692 143.895C959.959 143.895 975.035 148.446 987.4 156.181C973.946 171.046 965.838 190.031 965.838 210.685H985.145C985.145 194.658 991.581 179.945 1002.27 168.417C1012.97 179.945 1019.4 194.658 1019.4 210.685H1038.71C1038.71 190.006 1030.63 171.021 1017.15 156.181C1029.51 148.446 1044.59 143.895 1060.86 143.895C1063.52 143.895 1066.13 144.021 1068.71 144.249V286.905L1046.64 301.315L1051.3 318H1132.16L1136.82 301.315L1114.75 286.905V284.15L1114.85 284.124Z" fill="black"/>
<path d="M665.758 312.084C580.496 312.084 511.145 236.522 511.145 143.668H530.453C530.453 225.904 591.138 292.821 665.733 292.821C740.328 292.821 801.013 225.904 801.013 143.668H820.321C820.321 236.547 750.971 312.084 665.708 312.084" fill="black"/>
<path d="M765.21 165.383C721.122 165.383 685.269 129.612 685.269 85.6241C685.269 41.6365 721.122 5.86501 765.21 5.86501C809.299 5.86501 845.152 41.6365 845.152 85.6241H825.845C825.845 52.2795 798.657 25.1538 765.236 25.1538C731.815 25.1538 704.627 52.2795 704.627 85.6241C704.627 118.969 731.815 146.094 765.236 146.094V165.358L765.21 165.383Z" fill="black"/>
</svg>
