<?xml version="1.0" encoding="utf-8"?>
<!-- Generator: Adobe Illustrator 27.2.0, SVG Export Plug-In . SVG Version: 6.00 Build 0)  -->
<svg version="1.1" id="Layer_2_00000136409960384274578440000009610736126419154841_"
	 xmlns="http://www.w3.org/2000/svg" xmlns:xlink="http://www.w3.org/1999/xlink" x="0px" y="0px" viewBox="0 0 480.6 147.8"
	 style="enable-background:new 0 0 480.6 147.8;" xml:space="preserve">
<style type="text/css">
	.st0{fill:#221F20;}
</style>
<path class="st0" d="M29.4,72.7V123l9.9,6.3l-2.4,5.9H2.4L0,129.3l9.7-6.3V17.1L0,11l2.4-6.1h34.4l2.4,6.1l-9.9,6.1v46.7
	c41.8-5,74.8,38.1,65.3,71.4h-8.7C95.1,109.8,68.6,68.4,29.4,72.7z M48,53.9c12.3,6.3,28.3,1.3,34.4-11c7.4-13.6,2.4-28.3-11-35.7
	L75,0c17.3,8.6,23.4,29.4,14.9,46.7C81.1,64,60.3,70.1,44.3,61.6L48,53.9L48,53.9z"/>
<path class="st0" d="M178.9,129.1l9.9-6.1v-45c-5.9-7.4-15.8-12.1-27-12.1s-21.6,5.6-27.2,13.9V123l8.7,6.1l-1.3,6.1h-34.4l-2.4-6.1
	l9.9-6.1V17.3l-9.9-6.1l2.4-6.1h34.4l1.3,6.1l-8.7,6.1v49.5c7.2-6,16.7-9.7,27.2-9.7s19.7,3.3,27,8.7V17.3l-9.9-6.1l2.4-6.1h34.4
	l2.6,6.1l-9.9,6.1v105.6l9.9,6.1l-2.6,6.1h-34.4L178.9,129.1z"/>
<path class="st0" d="M219.9,64.4h8.7c0,34.8,25.5,62.9,57.3,62.9s58.8-28.1,58.8-62.9h8.7c0,39.6-30.3,71.6-67.5,71.6
	S219.9,104,219.9,64.4z M329.2,3.7c19.2,0,34.4,15.8,34.4,35h-8.7c0-15.6-11.4-26.2-25.7-26.2c-13.4,0-25.9,10.6-25.9,26.2
	c0,14.5,12.5,26,25.9,26v8.7c-19.5,0-34.6-16.5-34.6-34.8C294.6,19.5,309.7,3.7,329.2,3.7z"/>
<path class="st0" d="M441.2,129.1l9.9-6.1v-45c-6-7.4-15.8-12.1-27-12.1s-21.6,5.6-27.2,13.9V123l8.7,6.1l-1.3,6.1h-34.4l-2.4-6.1
	l9.9-6.1V17.3l-9.9-6.1l2.4-6.1h34.4l1.3,6.1l-8.7,6.1v49.5c7.2-6,16.7-9.7,27.2-9.7s19.7,3.3,27,8.7V17.3l-9.9-6.1l2.4-6.1H478
	l2.6,6.1l-9.9,6.1v105.6l9.9,6.1l-2.6,6.1h-34.4L441.2,129.1z"/>
<path class="st0" d="M4.3,138.4L4.3,138.4c0-0.2,0.1-0.2,0.2-0.2h3.2c0.1,0,0.1,0,0.1,0.2l0,1.1c0,0.1,0,0.1-0.1,0.1l-0.1,0
	c-0.1,0-0.1,0-0.1-0.1l-0.1-0.4c-0.1-0.4-0.3-0.6-0.6-0.6H6c-0.1,0-0.2,0-0.2,0.2l-0.5,1.7h1c0.3,0,0.4-0.2,0.6-0.5
	c0-0.1,0.1-0.1,0.2-0.1l0.1,0c0.1,0,0.1,0,0,0.2l-0.5,1.4c0,0.1-0.1,0.1-0.1,0.1l-0.1,0c-0.1,0-0.1,0-0.1-0.2
	c0.1-0.4,0.1-0.6-0.2-0.6H5.1l-0.5,1.7c-0.1,0.3-0.1,0.4,0.3,0.4h1c0.4,0,0.7-0.2,1-0.6l0.3-0.4c0.1-0.1,0.1-0.1,0.2-0.1l0.1,0
	c0.1,0,0.1,0,0.1,0.1l-0.3,1C7,143,7,143.1,6.8,143.1H3c-0.1,0-0.1,0-0.1-0.1l0-0.1c0-0.1,0.1-0.1,0.2-0.1c0.5,0,0.6-0.1,0.7-0.4
	l1.1-3.3c0.1-0.4,0-0.5-0.5-0.5C4.3,138.5,4.3,138.5,4.3,138.4L4.3,138.4z"/>
<path class="st0" d="M11.6,142c0-0.1,0.1-0.1,0.1,0l0.1,0c0,0,0,0.1,0,0.1c-0.2,0.4-0.8,1-1.3,1c-0.2,0-0.3-0.1-0.3-0.3
	c0-0.1,0.1-0.4,0.2-0.9l0,0c-0.4,0.5-1,1.2-1.5,1.2c-0.4,0-0.6-0.2-0.6-0.8c0-1.3,1.3-3,2.3-3c0.3,0,0.5,0.1,0.6,0.3l0.4-1.3
	c0.1-0.2,0-0.3-0.4-0.3c-0.1,0-0.1,0-0.1-0.1l0-0.1c0,0,0.1-0.1,0.1-0.1h1c0,0,0,0,0.1,0l0,0c0,0,0,0,0,0.1
	c-0.4,1.1-1.3,3.7-1.5,4.4c0,0.1,0,0.2,0.1,0.2C11,142.6,11.2,142.3,11.6,142L11.6,142z M10.8,140.2c0-0.3-0.2-0.5-0.4-0.5
	c-0.6,0-1.6,1.6-1.6,2.5c0,0.3,0.1,0.5,0.3,0.5c0.4,0,1.2-0.9,1.4-1.6C10.7,140.8,10.8,140.5,10.8,140.2L10.8,140.2z"/>
<path class="st0" d="M15,142.6c0.1,0,0.4-0.3,0.7-0.6c0,0,0.1-0.1,0.1,0l0.1,0.1c0,0,0,0.1,0,0.1c-0.3,0.5-0.9,1.1-1.3,1.1
	c-0.3,0-0.4-0.4-0.2-0.9l0.2-0.6l0,0c-0.4,0.6-1.2,1.6-1.8,1.6c-0.4,0-0.4-0.5-0.2-1c0.3-0.6,0.6-1.3,0.8-2c0-0.1,0-0.2-0.1-0.2
	c-0.1,0-0.4,0.3-0.7,0.6c0,0-0.1,0.1-0.1,0l-0.1,0c0,0,0-0.1,0-0.1c0.4-0.6,0.9-1,1.3-1c0.3,0,0.4,0.4,0.2,0.9c-0.4,1-0.6,1.5-0.8,2
	c-0.1,0.2,0,0.3,0.1,0.3c0.3,0,1.3-1.1,1.7-1.9c0.1-0.2,0.1-0.3,0.2-0.5c0.1-0.1,0.1-0.3,0.2-0.5c0-0.1,0.1-0.2,0.2-0.2h0.3
	c0.1,0,0.1,0.1,0.1,0.3c-0.3,0.7-0.6,1.6-0.9,2.6C14.8,142.5,14.8,142.6,15,142.6L15,142.6z"/>
<path class="st0" d="M16.3,142.2c0-1.2,1.1-2.8,2.1-2.8c0.4,0,0.7,0.2,0.7,0.6c0,0.2-0.2,0.5-0.4,0.5c-0.2,0-0.3-0.1-0.3-0.3
	c0-0.1,0-0.2,0.1-0.2c0-0.1,0-0.1,0-0.1c0-0.1,0-0.1-0.1-0.1c-0.6,0-1.3,1.5-1.3,2.3c0,0.4,0.1,0.7,0.5,0.7c0.3,0,0.5-0.2,0.7-0.5
	c0.1-0.1,0.1-0.1,0.1,0l0.1,0c0,0,0,0.1,0,0.1c-0.2,0.3-0.7,0.8-1.3,0.8C16.6,143.2,16.3,142.8,16.3,142.2L16.3,142.2z"/>
<path class="st0" d="M21.8,142.6c0.2,0,0.4-0.3,0.7-0.6c0,0,0.1,0,0.1,0l0.1,0c0,0,0,0.1,0,0.1c-0.4,0.6-0.9,1-1.3,1
	c-0.2,0-0.3-0.1-0.3-0.3c0-0.2,0.1-0.4,0.2-0.9l0,0c-0.5,0.7-1,1.2-1.5,1.2c-0.3,0-0.5-0.2-0.5-0.7c0-1.3,1.3-3.1,2.3-3.1
	c0.3,0,0.5,0.2,0.6,0.4l0.1-0.2c0-0.1,0.1-0.1,0.2-0.1h0.3c0.1,0,0.1,0.1,0.1,0.2c-0.3,0.8-0.7,1.9-1,2.7
	C21.6,142.5,21.7,142.6,21.8,142.6L21.8,142.6z M19.8,142.2c0,0.2,0.1,0.4,0.3,0.4c0.4,0,1.2-1,1.5-1.6c0.1-0.3,0.2-0.6,0.2-0.9
	c0-0.3-0.2-0.5-0.4-0.5C20.8,139.6,19.8,141.3,19.8,142.2L19.8,142.2z"/>
<path class="st0" d="M23.8,142.3c0,0.1,0,0.2,0.1,0.2c0.1,0,0.5-0.3,0.7-0.6c0,0,0.1,0,0.1,0l0.1,0.1c0,0,0,0,0,0.1
	c-0.3,0.4-0.9,1-1.3,1c-0.4,0-0.4-0.5-0.2-0.9l0.8-2.4h-0.4c-0.1,0-0.1,0,0-0.1l0.1-0.2c0-0.1,0-0.1,0.1-0.1h0.4l0.2-0.6
	c0-0.1,0.1-0.1,0.2-0.2c0.2,0,0.4-0.2,0.4-0.2c0.1,0,0.1,0,0.1,0.2l-0.3,0.8h0.7c0.1,0,0.1,0,0.1,0.1l-0.1,0.2
	c0,0.1-0.1,0.1-0.1,0.1h-0.7L23.8,142.3L23.8,142.3z"/>
<path class="st0" d="M26.6,140.2c0-0.1,0-0.2-0.1-0.2c-0.1,0-0.5,0.4-0.7,0.6c0,0-0.1,0-0.1,0l-0.1,0c0,0,0-0.1,0-0.1
	c0.4-0.6,0.9-1,1.3-1c0.3,0,0.4,0.4,0.2,0.9c-0.2,0.4-0.7,1.6-0.9,2c-0.1,0.2,0,0.2,0.1,0.2c0.2,0,0.5-0.4,0.7-0.6
	c0,0,0.1-0.1,0.1,0l0.1,0.1c0,0,0,0.1,0,0.1c-0.4,0.6-0.9,1-1.3,1c-0.4,0-0.4-0.4-0.1-1C26,141.6,26.5,140.5,26.6,140.2L26.6,140.2z
	 M26.9,138.6c0-0.3,0.2-0.5,0.5-0.5c0.2,0,0.3,0.2,0.3,0.3c0,0.3-0.2,0.5-0.5,0.5C27,138.9,26.9,138.8,26.9,138.6L26.9,138.6z"/>
<path class="st0" d="M27.8,142c0-1,0.9-2.6,2-2.6c0.6,0,1,0.4,1,1.1c0,1.2-0.9,2.7-2,2.7C28.1,143.1,27.8,142.7,27.8,142L27.8,142z
	 M29.9,141.5c0.2-0.5,0.4-1,0.4-1.4c0-0.2-0.1-0.4-0.3-0.4c-0.4,0-0.8,0.6-1.2,1.4c-0.2,0.5-0.4,1.1-0.4,1.4c0,0.2,0.1,0.4,0.3,0.4
	C29,142.9,29.5,142.2,29.9,141.5L29.9,141.5z"/>
<path class="st0" d="M34.2,140.3c0.1-0.2,0-0.3-0.1-0.3c-0.3,0-1.3,1-1.6,1.7c-0.1,0.2-0.2,0.4-0.3,0.7l-0.2,0.6
	c0,0.1-0.1,0.1-0.2,0.1h-0.3c-0.1,0-0.1-0.1-0.1-0.2c0.4-1,0.7-1.8,1-2.7c0-0.1,0-0.3-0.1-0.3c-0.1,0-0.4,0.3-0.7,0.6
	c0,0-0.1,0-0.1,0l-0.1,0c0,0,0-0.1,0-0.1c0.4-0.6,0.9-1.1,1.3-1.1c0.3,0,0.4,0.4,0.2,0.9l-0.3,0.8h0c0.7-0.9,1.4-1.7,2-1.7
	c0.3,0,0.4,0.4,0.2,0.9c-0.3,0.7-0.6,1.4-0.9,2.1c0,0.1,0,0.2,0.1,0.2c0.2,0,0.5-0.4,0.7-0.6c0-0.1,0.1-0.1,0.1,0l0.1,0
	c0,0,0,0.1,0,0.1c-0.3,0.5-0.9,1-1.3,1c-0.4,0-0.4-0.5-0.2-0.9C33.7,141.6,33.9,140.9,34.2,140.3L34.2,140.3z"/>
<path class="st0" d="M37.9,142.6c0.2,0,0.4-0.3,0.7-0.6c0,0,0.1,0,0.1,0l0.1,0c0,0,0,0.1,0,0.1c-0.4,0.6-0.9,1-1.3,1
	c-0.2,0-0.3-0.1-0.3-0.3c0-0.2,0.1-0.4,0.2-0.9l0,0c-0.5,0.7-1,1.2-1.5,1.2c-0.3,0-0.5-0.2-0.5-0.7c0-1.3,1.3-3.1,2.3-3.1
	c0.3,0,0.5,0.2,0.6,0.4l0.1-0.2c0-0.1,0.1-0.1,0.2-0.1h0.3c0.1,0,0.1,0.1,0.1,0.2c-0.3,0.8-0.7,1.9-1,2.7
	C37.8,142.5,37.8,142.6,37.9,142.6L37.9,142.6z M36,142.2c0,0.2,0.1,0.4,0.3,0.4c0.4,0,1.2-1,1.5-1.6c0.1-0.3,0.2-0.6,0.2-0.9
	c0-0.3-0.2-0.5-0.4-0.5C36.9,139.6,36,141.3,36,142.2L36,142.2z"/>
<path class="st0" d="M39.8,142.4c0,0.1,0,0.2,0.1,0.2c0.2,0,0.4-0.3,0.6-0.6c0,0,0.1-0.1,0.1,0l0.1,0c0,0,0,0.1,0,0.1
	c-0.2,0.4-0.8,1.1-1.2,1.1c-0.4,0-0.4-0.6-0.2-1.2c0.4-1.2,0.9-2.4,1.2-3.6c0.1-0.3,0-0.3-0.4-0.3c-0.1,0-0.1,0-0.1-0.1l0-0.1
	c0-0.1,0-0.1,0.1-0.1h1c0,0,0,0,0.1,0l0,0c0,0,0,0,0,0.1C40.8,139.4,40.3,141.1,39.8,142.4L39.8,142.4z"/>
<path class="st0" d="M44.2,142.3c-0.1,0.4,0.1,0.4,0.6,0.4c0.1,0,0.1,0,0.1,0.1l0,0.1c0,0.1,0,0.1-0.2,0.1h-2.1
	c-0.1,0-0.1,0-0.1-0.1l0-0.1c0-0.1,0-0.1,0.2-0.1c0.5,0,0.6-0.1,0.7-0.5l1-3.4c0.1-0.3,0-0.5-0.4-0.5c-0.1,0-0.1,0-0.1-0.1l0-0.1
	c0-0.1,0.1-0.1,0.2-0.1h1.8c1,0,1.6,0.4,1.6,1.2c0,0.9-0.7,1.7-2,1.7c-0.3,0-0.6,0-0.9-0.1L44.2,142.3L44.2,142.3z M44.6,140.6
	c0.3,0.1,0.5,0.1,0.7,0.1c0.9,0,1.4-0.7,1.4-1.5c0-0.5-0.3-0.8-1-0.8h-0.3c-0.2,0-0.2,0-0.3,0.2L44.6,140.6L44.6,140.6z"/>
<path class="st0" d="M48.4,142.9c0,0.1-0.1,0.1-0.2,0.1h-0.3c-0.1,0-0.1-0.1-0.1-0.2c0.3-0.8,0.6-1.7,0.9-2.6c0.1-0.3,0-0.4-0.1-0.4
	c-0.1,0-0.4,0.3-0.7,0.6c0,0-0.1,0-0.1,0l-0.1,0c0,0-0.1-0.1,0-0.1c0.4-0.6,0.9-1,1.3-1c0.3,0,0.4,0.4,0.2,0.9l-0.2,0.6l0,0
	c0.4-0.7,0.9-1.5,1.4-1.5c0.2,0,0.4,0.2,0.4,0.4c0,0.3-0.2,0.5-0.4,0.5c-0.1,0-0.2-0.1-0.2-0.2c0-0.1-0.1-0.1-0.1-0.1
	c-0.3,0-1,1.2-1.3,1.9c-0.1,0.2-0.1,0.3-0.2,0.6L48.4,142.9L48.4,142.9z"/>
<path class="st0" d="M50.8,142c0-1,0.9-2.6,2-2.6c0.6,0,1,0.4,1,1.1c0,1.2-0.9,2.7-2,2.7C51.2,143.1,50.8,142.7,50.8,142L50.8,142z
	 M52.9,141.5c0.2-0.5,0.4-1,0.4-1.4c0-0.2-0.1-0.4-0.3-0.4c-0.4,0-0.8,0.6-1.2,1.4c-0.2,0.5-0.4,1.1-0.4,1.4c0,0.2,0.1,0.4,0.3,0.4
	C52,142.9,52.5,142.2,52.9,141.5L52.9,141.5z"/>
<path class="st0" d="M57.7,139.7c0,0.2-0.1,0.3-0.3,0.3c-0.1,0-0.2-0.1-0.3-0.1c0-0.1-0.1-0.1-0.1-0.1c-0.1,0-0.1,0-0.2,0.1
	c0,0.1,0.1,0.3,0.1,0.4c0,0.6-0.4,1.4-1.2,1.6c-0.4,0.1-0.8,0.2-0.8,0.4c0,0.2,0.2,0.3,0.5,0.5c0.2,0.1,0.5,0.3,0.8,0.5
	c0.3,0.2,0.6,0.5,0.6,0.8c0,0.5-0.6,0.9-1.8,0.9c-1,0-1.6-0.4-1.6-0.8c0-0.5,0.8-0.9,1.5-1.1c-0.4-0.2-0.6-0.4-0.6-0.7
	c0-0.3,0.4-0.5,0.8-0.7c-0.3-0.1-0.5-0.5-0.5-0.8c0-0.9,0.8-1.6,1.4-1.6c0.3,0,0.6,0.1,0.7,0.3c0.2-0.2,0.5-0.3,0.7-0.3
	C57.5,139.4,57.7,139.5,57.7,139.7L57.7,139.7z M55.1,143.3c-0.6,0.2-1.1,0.5-1.1,0.9c0,0.4,0.4,0.6,1.1,0.6c0.7,0,1-0.2,1-0.6
	c0-0.2-0.2-0.4-0.4-0.6C55.6,143.6,55.3,143.4,55.1,143.3L55.1,143.3z M56.3,140c0-0.2-0.1-0.4-0.3-0.4c-0.4,0-1,1-1,1.6
	c0,0.2,0.1,0.4,0.3,0.4C55.8,141.7,56.3,140.7,56.3,140L56.3,140z"/>
<path class="st0" d="M58.4,142.9c0,0.1-0.1,0.1-0.2,0.1h-0.3c-0.1,0-0.1-0.1-0.1-0.2c0.3-0.8,0.6-1.7,0.9-2.6c0.1-0.3,0-0.4-0.1-0.4
	c-0.1,0-0.4,0.3-0.7,0.6c0,0-0.1,0-0.1,0l-0.1,0c0,0-0.1-0.1,0-0.1c0.4-0.6,0.9-1,1.3-1c0.3,0,0.4,0.4,0.2,0.9l-0.2,0.6l0,0
	c0.4-0.7,0.9-1.5,1.4-1.5c0.2,0,0.4,0.2,0.4,0.4c0,0.3-0.2,0.5-0.4,0.5c-0.1,0-0.2-0.1-0.2-0.2c0-0.1-0.1-0.1-0.1-0.1
	c-0.3,0-1,1.2-1.3,1.9c-0.1,0.2-0.1,0.3-0.2,0.6L58.4,142.9L58.4,142.9z"/>
<path class="st0" d="M63.3,142.6c0.2,0,0.4-0.3,0.7-0.6c0,0,0.1,0,0.1,0l0.1,0c0,0,0,0.1,0,0.1c-0.4,0.6-0.9,1-1.3,1
	c-0.2,0-0.3-0.1-0.3-0.3c0-0.2,0.1-0.4,0.2-0.9l0,0c-0.5,0.7-1,1.2-1.5,1.2c-0.3,0-0.5-0.2-0.5-0.7c0-1.3,1.3-3.1,2.3-3.1
	c0.3,0,0.5,0.2,0.6,0.4l0.1-0.2c0-0.1,0.1-0.1,0.2-0.1h0.3c0.1,0,0.1,0.1,0.1,0.2c-0.3,0.8-0.7,1.9-1,2.7
	C63.2,142.5,63.2,142.6,63.3,142.6L63.3,142.6z M61.4,142.2c0,0.2,0.1,0.4,0.3,0.4c0.4,0,1.2-1,1.5-1.6c0.1-0.3,0.2-0.6,0.2-0.9
	c0-0.3-0.2-0.5-0.4-0.5C62.3,139.6,61.4,141.3,61.4,142.2L61.4,142.2z"/>
<path class="st0" d="M69.4,140c-0.3,0-1.3,1-1.7,1.8c-0.1,0.2-0.2,0.5-0.3,0.7l-0.2,0.4c0,0.1-0.1,0.2-0.2,0.2h-0.3
	c-0.1,0-0.1-0.1-0.1-0.2c0.3-0.7,0.8-2,0.9-2.6c0-0.2,0.1-0.3-0.1-0.3c-0.3,0-1,0.9-1.5,1.6c-0.2,0.3-0.3,0.5-0.4,0.7l-0.2,0.6
	c0,0.1-0.1,0.1-0.2,0.1h-0.3c-0.1,0-0.1,0-0.1-0.2c0.4-0.9,0.7-1.8,1-2.7c0-0.1,0-0.2-0.1-0.2c-0.1,0-0.5,0.3-0.7,0.6
	c0,0-0.1,0.1-0.1,0l-0.1,0c0,0,0-0.1,0-0.1c0.4-0.6,0.9-1,1.3-1c0.3,0,0.4,0.4,0.2,0.9l-0.3,0.7l0,0c0.6-0.9,1.4-1.6,1.9-1.6
	c0.3,0,0.4,0.4,0.2,0.9L68,141l0,0c0.6-0.9,1.4-1.6,1.9-1.6c0.3,0,0.4,0.4,0.2,0.9c-0.3,0.7-0.6,1.4-0.9,2.1c-0.1,0.1,0,0.2,0.1,0.2
	c0.1,0,0.5-0.4,0.7-0.6c0,0,0.1-0.1,0.1,0l0.1,0.1c0,0,0,0.1,0,0.1c-0.3,0.4-0.8,1-1.3,1c-0.3,0-0.4-0.4-0.2-0.9
	c0.3-0.7,0.5-1.3,0.8-2C69.6,140.1,69.5,140,69.4,140L69.4,140z"/>
<path class="st0" d="M73.3,139.8h-0.5c-0.1,0-0.1,0-0.1-0.1l0-0.2c0-0.1,0.1-0.1,0.1-0.1h0.5c0.3-1,0.8-1.7,1.7-1.7
	c0.4,0,0.7,0.2,0.7,0.6c0,0.2-0.1,0.4-0.4,0.4c-0.2,0-0.3-0.1-0.3-0.3c0-0.1,0-0.1,0-0.2c0,0,0-0.1,0-0.1c0-0.1,0-0.1-0.1-0.1
	c-0.4,0-0.7,0.6-1,1.5h0.7c0.1,0,0.1,0,0.1,0.1l0,0.1c0,0.1-0.1,0.1-0.2,0.1h-0.7c-0.2,0.8-0.6,2.1-0.8,2.9
	c-0.4,1.3-0.9,2.3-1.9,2.3c-0.4,0-0.8-0.2-0.8-0.6c0-0.2,0.1-0.4,0.4-0.4s0.3,0.2,0.4,0.4c0,0.1,0.1,0.3,0.2,0.3
	c0.4,0,0.7-0.8,1.1-2.1C72.7,141.9,73.1,140.7,73.3,139.8L73.3,139.8z"/>
<path class="st0" d="M74.8,142c0-1,0.9-2.6,2-2.6c0.6,0,1,0.4,1,1.1c0,1.2-0.9,2.7-2,2.7C75.1,143.1,74.8,142.7,74.8,142L74.8,142z
	 M76.8,141.5c0.2-0.5,0.4-1,0.4-1.4c0-0.2-0.1-0.4-0.3-0.4c-0.4,0-0.8,0.6-1.2,1.4c-0.2,0.5-0.4,1.1-0.4,1.4c0,0.2,0.1,0.4,0.3,0.4
	C76,142.9,76.5,142.2,76.8,141.5L76.8,141.5z"/>
<path class="st0" d="M79,142.9c0,0.1-0.1,0.1-0.2,0.1h-0.3c-0.1,0-0.1-0.1-0.1-0.2c0.3-0.8,0.6-1.7,0.9-2.6c0.1-0.3,0-0.4-0.1-0.4
	c-0.1,0-0.4,0.3-0.7,0.6c0,0-0.1,0-0.1,0l-0.1,0c0,0-0.1-0.1,0-0.1c0.4-0.6,0.9-1,1.3-1c0.3,0,0.4,0.4,0.2,0.9l-0.2,0.6l0,0
	c0.4-0.7,0.9-1.5,1.4-1.5c0.2,0,0.4,0.2,0.4,0.4c0,0.3-0.2,0.5-0.4,0.5c-0.1,0-0.2-0.1-0.2-0.2c0-0.1-0.1-0.1-0.1-0.1
	c-0.3,0-1,1.2-1.3,1.9c-0.1,0.2-0.1,0.3-0.2,0.6L79,142.9L79,142.9z"/>
<path class="st0" d="M86.4,138.1c0.5,0,0.8,0.2,1.1,0.4c0.1,0.1,0.2,0.1,0.3,0l0.1-0.1c0-0.1,0.1-0.1,0.1-0.1l0.1,0
	c0.1,0,0.1,0,0.1,0.1l-0.4,1.5c0,0.1,0,0.1-0.1,0.1l-0.1,0c-0.1,0-0.1-0.1-0.1-0.1c0.1-0.8-0.3-1.4-1-1.4c-1.2,0-2.1,1.6-2.1,2.9
	c0,0.9,0.4,1.5,1.1,1.5s1.3-0.6,1.7-1.3c0-0.1,0.1-0.1,0.1-0.1l0.1,0c0.1,0,0.1,0,0.1,0.1l-0.4,1.5c0,0.1-0.1,0.1-0.1,0.1l-0.1,0
	c-0.1,0-0.1-0.1-0.1-0.1l0-0.1c0-0.1-0.1-0.2-0.2-0.1c-0.3,0.2-0.7,0.3-1.2,0.3c-1.1,0-1.8-0.8-1.8-1.8
	C83.5,139.6,84.8,138.1,86.4,138.1L86.4,138.1z"/>
<path class="st0" d="M89,142.9c0,0.1-0.1,0.1-0.2,0.1h-0.3c-0.1,0-0.1-0.1-0.1-0.2c0.3-0.8,0.6-1.7,0.9-2.6c0.1-0.3,0-0.4-0.1-0.4
	c-0.1,0-0.4,0.3-0.7,0.6c0,0-0.1,0-0.1,0l-0.1,0c0,0-0.1-0.1,0-0.1c0.4-0.6,0.9-1,1.3-1c0.3,0,0.4,0.4,0.2,0.9l-0.2,0.6l0,0
	c0.4-0.7,0.9-1.5,1.4-1.5c0.2,0,0.4,0.2,0.4,0.4c0,0.3-0.2,0.5-0.4,0.5c-0.1,0-0.2-0.1-0.2-0.2c0-0.1-0.1-0.1-0.1-0.1
	c-0.3,0-1,1.2-1.3,1.9c-0.1,0.2-0.1,0.3-0.2,0.6L89,142.9L89,142.9z"/>
<path class="st0" d="M93.4,142c0,0,0.1,0,0.1,0l0.1,0c0,0,0,0.1,0,0.1c-0.3,0.5-0.8,1-1.4,1c-0.7,0-0.9-0.5-0.9-0.9
	c0-1.2,1.3-2.8,2.2-2.8c0.4,0,0.6,0.2,0.6,0.6c0,0.6-0.7,1.3-2.1,1.6c0,0.1,0,0.3,0,0.4c0,0.3,0.1,0.6,0.5,0.6
	C92.9,142.6,93.2,142.4,93.4,142L93.4,142z M92.2,141.3c0.9-0.2,1.4-0.8,1.4-1.3c0-0.2-0.1-0.3-0.2-0.3
	C93,139.7,92.5,140.5,92.2,141.3L92.2,141.3z"/>
<path class="st0" d="M97,142.6c0.2,0,0.4-0.3,0.7-0.6c0,0,0.1,0,0.1,0l0.1,0c0,0,0,0.1,0,0.1c-0.4,0.6-0.9,1-1.3,1
	c-0.2,0-0.3-0.1-0.3-0.3c0-0.2,0.1-0.4,0.2-0.9l0,0c-0.5,0.7-1,1.2-1.5,1.2c-0.3,0-0.5-0.2-0.5-0.7c0-1.3,1.3-3.1,2.3-3.1
	c0.3,0,0.5,0.2,0.6,0.4l0.1-0.2c0-0.1,0.1-0.1,0.2-0.1h0.3c0.1,0,0.1,0.1,0.1,0.2c-0.3,0.8-0.7,1.9-1,2.7
	C96.9,142.5,96.9,142.6,97,142.6L97,142.6z M95.1,142.2c0,0.2,0.1,0.4,0.3,0.4c0.4,0,1.2-1,1.5-1.6c0.1-0.3,0.2-0.6,0.2-0.9
	c0-0.3-0.2-0.5-0.4-0.5C96,139.6,95.1,141.3,95.1,142.2L95.1,142.2z"/>
<path class="st0" d="M99.1,142.3c0,0.1,0,0.2,0.1,0.2c0.1,0,0.5-0.3,0.7-0.6c0,0,0.1,0,0.1,0l0.1,0.1c0,0,0,0,0,0.1
	c-0.3,0.4-0.9,1-1.3,1c-0.4,0-0.4-0.5-0.2-0.9l0.8-2.4h-0.4c-0.1,0-0.1,0,0-0.1l0.1-0.2c0-0.1,0-0.1,0.1-0.1h0.4l0.2-0.6
	c0-0.1,0.1-0.1,0.2-0.2c0.2,0,0.4-0.2,0.4-0.2c0.1,0,0.1,0,0.1,0.2l-0.3,0.8h0.7c0.1,0,0.1,0,0.1,0.1l-0.1,0.2
	c0,0.1-0.1,0.1-0.1,0.1h-0.7L99.1,142.3L99.1,142.3z"/>
<path class="st0" d="M101.9,140.2c0-0.1,0-0.2-0.1-0.2c-0.1,0-0.5,0.4-0.7,0.6c0,0-0.1,0-0.1,0l-0.1,0c0,0,0-0.1,0-0.1
	c0.4-0.6,0.9-1,1.3-1c0.3,0,0.4,0.4,0.2,0.9c-0.2,0.4-0.7,1.6-0.9,2c-0.1,0.2,0,0.2,0.1,0.2c0.2,0,0.5-0.4,0.7-0.6
	c0,0,0.1-0.1,0.1,0l0.1,0.1c0,0,0,0.1,0,0.1c-0.4,0.6-0.9,1-1.3,1c-0.4,0-0.4-0.4-0.1-1C101.2,141.6,101.7,140.5,101.9,140.2
	L101.9,140.2z M102.1,138.6c0-0.3,0.2-0.5,0.5-0.5c0.2,0,0.3,0.2,0.3,0.3c0,0.3-0.2,0.5-0.5,0.5
	C102.3,138.9,102.1,138.8,102.1,138.6z"/>
<path class="st0" d="M103.8,140.5c0.1,0.1,0.2,0.1,0.2,0.3c0,0.2-0.1,0.3-0.3,0.3c-0.3,0-0.5-0.3-0.5-0.5c0-0.6,0.7-1.2,1.3-1.2
	c0.4,0,0.8,0,1,0c0.1,0,0.1,0.1,0.1,0.2c-0.6,0.7-1.1,1.7-1.1,2.3c0,0.4,0.2,0.7,0.6,0.7c0.8,0,1.5-1.1,1.5-1.9
	c0-0.2-0.1-0.3-0.3-0.4c-0.1-0.1-0.2-0.2-0.2-0.4c0-0.2,0.2-0.4,0.4-0.4c0.3,0,0.5,0.4,0.5,0.8c0,1.2-0.9,3-2.1,3
	c-0.6,0-0.9-0.3-0.9-0.9c0-0.7,0.6-1.7,1-2.3c-0.2,0.1-0.4,0.1-0.7,0.1h-0.4c-0.2,0-0.3,0.1-0.3,0.2
	C103.6,140.4,103.7,140.5,103.8,140.5L103.8,140.5z"/>
<path class="st0" d="M109.4,142c0,0,0.1,0,0.1,0l0.1,0c0,0,0,0.1,0,0.1c-0.3,0.5-0.8,1-1.4,1c-0.7,0-0.9-0.5-0.9-0.9
	c0-1.2,1.3-2.8,2.2-2.8c0.4,0,0.6,0.2,0.6,0.6c0,0.6-0.7,1.3-2.1,1.6c0,0.1,0,0.3,0,0.4c0,0.3,0.1,0.6,0.5,0.6
	C108.9,142.6,109.2,142.4,109.4,142L109.4,142z M108.2,141.3c0.9-0.2,1.4-0.8,1.4-1.3c0-0.2-0.1-0.3-0.2-0.3
	C109,139.7,108.5,140.5,108.2,141.3L108.2,141.3z"/>
<path class="st0" d="M115.2,138.7c0-0.2,0-0.2-0.1-0.2h-0.7c-0.3,0-0.6,0.2-0.9,0.5c-0.1,0.1-0.2,0.3-0.3,0.5c0,0.1-0.1,0.1-0.2,0
	l-0.1,0c0,0-0.1-0.1,0-0.1l0.5-1.1c0-0.1,0.1-0.1,0.1-0.1c0.1,0,0.3,0.1,0.7,0.1h2.9c0.3,0,0.6-0.1,0.7-0.1c0.1,0,0.1,0,0.1,0.1
	l-0.1,1.2c0,0.1,0,0.1-0.1,0.1h-0.1c-0.1,0-0.1,0-0.1-0.1l-0.1-0.5c-0.1-0.3-0.2-0.5-0.5-0.5h-0.6c-0.2,0-0.2,0.1-0.3,0.2l-1,3.6
	c-0.1,0.3,0,0.4,0.5,0.4c0.1,0,0.1,0,0.1,0.1l0,0.1c0,0.1,0,0.1-0.1,0.1h-2c-0.1,0-0.1,0-0.1-0.1l0-0.1c0-0.1,0-0.1,0.2-0.1
	c0.5,0,0.6-0.1,0.7-0.5L115.2,138.7L115.2,138.7z"/>
<path class="st0" d="M118.8,140.6L118.8,140.6c0.4-0.7,0.9-1.2,1.5-1.2c0.4,0,0.6,0.3,0.6,0.9c0,1-1,2.9-1.9,2.9
	c-0.3,0-0.5-0.2-0.5-0.4s0.1-0.4,0.4-0.4c0.2,0,0.2,0.1,0.3,0.2c0,0.1,0.1,0.1,0.1,0.1c0.4,0,0.9-1.5,0.9-2.5c0-0.2-0.1-0.4-0.2-0.4
	c-0.4,0-0.9,0.7-1.2,1.2c-0.2,0.3-0.4,0.7-0.5,1.1l-0.3,0.8c0,0.1-0.1,0.1-0.2,0.1h-0.3c-0.1,0-0.1,0-0.1-0.2l1.5-4.5
	c0.1-0.2,0-0.3-0.4-0.3c-0.1,0-0.1,0-0.1-0.1l0-0.1c0-0.1,0-0.1,0.1-0.1h0.9c0,0,0.1,0,0.1,0l0,0c0,0,0,0.1,0,0.1L118.8,140.6
	L118.8,140.6z"/>
<path class="st0" d="M122.4,140.2c0-0.1,0-0.2-0.1-0.2c-0.1,0-0.5,0.4-0.7,0.6c0,0-0.1,0-0.1,0l-0.1,0c0,0,0-0.1,0-0.1
	c0.4-0.6,0.9-1,1.3-1c0.3,0,0.4,0.4,0.2,0.9c-0.2,0.4-0.7,1.6-0.9,2c-0.1,0.2,0,0.2,0.1,0.2c0.2,0,0.5-0.4,0.7-0.6
	c0,0,0.1-0.1,0.1,0l0.1,0.1c0,0,0,0.1,0,0.1c-0.4,0.6-0.9,1-1.3,1c-0.4,0-0.4-0.4-0.1-1C121.7,141.6,122.2,140.5,122.4,140.2
	L122.4,140.2z M122.6,138.6c0-0.3,0.2-0.5,0.5-0.5c0.2,0,0.3,0.2,0.3,0.3c0,0.3-0.2,0.5-0.5,0.5
	C122.8,138.9,122.6,138.8,122.6,138.6z"/>
<path class="st0" d="M126.5,140.3c0.1-0.2,0-0.3-0.1-0.3c-0.3,0-1.3,1-1.6,1.7c-0.1,0.2-0.2,0.4-0.3,0.7l-0.2,0.6
	c0,0.1-0.1,0.1-0.2,0.1h-0.3c-0.1,0-0.1-0.1-0.1-0.2c0.4-1,0.7-1.8,1-2.7c0-0.1,0-0.3-0.1-0.3c-0.1,0-0.4,0.3-0.7,0.6
	c0,0-0.1,0-0.1,0l-0.1,0c0,0,0-0.1,0-0.1c0.4-0.6,0.9-1.1,1.3-1.1c0.3,0,0.4,0.4,0.2,0.9l-0.3,0.8h0c0.7-0.9,1.4-1.7,2-1.7
	c0.3,0,0.4,0.4,0.2,0.9c-0.3,0.7-0.6,1.4-0.9,2.1c0,0.1,0,0.2,0.1,0.2c0.2,0,0.5-0.4,0.7-0.6c0-0.1,0.1-0.1,0.1,0l0.1,0
	c0,0,0,0.1,0,0.1c-0.3,0.5-0.9,1-1.3,1c-0.4,0-0.4-0.5-0.2-0.9C126,141.6,126.3,140.9,126.5,140.3L126.5,140.3z"/>
<path class="st0" d="M129.1,138.4c0.1-0.3,0-0.3-0.4-0.3c-0.1,0-0.1,0-0.1-0.1l0-0.1c0,0,0-0.1,0.1-0.1h1c0,0,0.1,0,0.1,0l0,0
	c0,0,0,0,0,0.1l-0.9,2.3l0,0c0.4-0.5,0.9-0.9,1.4-0.9c0.4,0,0.6,0.2,0.6,0.5c0,0.7-0.8,1.2-1.5,1.5c0.1,0.3,0.3,0.6,0.4,0.9
	c0.2,0.3,0.2,0.4,0.3,0.4c0.1,0,0.2-0.1,0.3-0.3c0,0,0.1,0,0.1,0l0,0c0,0,0.1,0.1,0,0.1c-0.2,0.4-0.4,0.6-0.8,0.6
	c-0.2,0-0.4-0.2-0.6-0.6c-0.1-0.3-0.3-0.6-0.4-0.8c-0.1-0.1-0.1-0.2-0.3-0.2h-0.1l-0.5,1.4c0,0.1-0.1,0.1-0.2,0.1h-0.3
	c-0.1,0-0.1-0.1-0.1-0.2L129.1,138.4L129.1,138.4z M128.7,141.4L128.7,141.4c0.2,0,0.5-0.1,0.7-0.1c0.5-0.2,1-0.7,1-1.1
	c0-0.2-0.1-0.3-0.3-0.3c-0.3,0-0.6,0.3-0.9,0.6C129,140.7,128.8,141,128.7,141.4L128.7,141.4L128.7,141.4z"/>
<path class="st0" d="M132.5,140.2c0-0.1,0-0.2-0.1-0.2c-0.1,0-0.5,0.4-0.7,0.6c0,0-0.1,0-0.1,0l-0.1,0c0,0,0-0.1,0-0.1
	c0.4-0.6,0.9-1,1.3-1c0.3,0,0.4,0.4,0.2,0.9c-0.2,0.4-0.7,1.6-0.9,2c-0.1,0.2,0,0.2,0.1,0.2c0.2,0,0.5-0.4,0.7-0.6
	c0,0,0.1-0.1,0.1,0l0.1,0.1c0,0,0,0.1,0,0.1c-0.4,0.6-0.9,1-1.3,1c-0.4,0-0.4-0.4-0.1-1C131.8,141.6,132.3,140.5,132.5,140.2
	L132.5,140.2z M132.7,138.6c0-0.3,0.2-0.5,0.5-0.5c0.2,0,0.3,0.2,0.3,0.3c0,0.3-0.2,0.5-0.5,0.5
	C132.9,138.9,132.7,138.8,132.7,138.6z"/>
<path class="st0" d="M136.6,140.3c0.1-0.2,0-0.3-0.1-0.3c-0.3,0-1.3,1-1.6,1.7c-0.1,0.2-0.2,0.4-0.3,0.7l-0.2,0.6
	c0,0.1-0.1,0.1-0.2,0.1h-0.3c-0.1,0-0.1-0.1-0.1-0.2c0.4-1,0.7-1.8,1-2.7c0-0.1,0-0.3-0.1-0.3c-0.1,0-0.4,0.3-0.7,0.6
	c0,0-0.1,0-0.1,0l-0.1,0c0,0,0-0.1,0-0.1c0.4-0.6,0.9-1.1,1.3-1.1c0.3,0,0.4,0.4,0.2,0.9L135,141h0c0.7-0.9,1.4-1.7,2-1.7
	c0.3,0,0.4,0.4,0.2,0.9c-0.3,0.7-0.6,1.4-0.9,2.1c0,0.1,0,0.2,0.1,0.2c0.2,0,0.5-0.4,0.7-0.6c0-0.1,0.1-0.1,0.1,0l0.1,0
	c0,0,0,0.1,0,0.1c-0.3,0.5-0.9,1-1.3,1c-0.4,0-0.4-0.5-0.2-0.9C136.1,141.6,136.4,140.9,136.6,140.3L136.6,140.3z"/>
<path class="st0" d="M141.3,139.7c0,0.2-0.1,0.3-0.3,0.3c-0.1,0-0.2-0.1-0.3-0.1c0-0.1-0.1-0.1-0.1-0.1c-0.1,0-0.1,0-0.2,0.1
	c0,0.1,0.1,0.3,0.1,0.4c0,0.6-0.4,1.4-1.2,1.6c-0.4,0.1-0.8,0.2-0.8,0.4c0,0.2,0.2,0.3,0.5,0.5c0.2,0.1,0.5,0.3,0.8,0.5
	c0.3,0.2,0.6,0.5,0.6,0.8c0,0.5-0.6,0.9-1.8,0.9c-1,0-1.6-0.4-1.6-0.8c0-0.5,0.8-0.9,1.5-1.1c-0.4-0.2-0.6-0.4-0.6-0.7
	c0-0.3,0.4-0.5,0.8-0.7c-0.3-0.1-0.5-0.5-0.5-0.8c0-0.9,0.8-1.6,1.4-1.6c0.3,0,0.6,0.1,0.7,0.3c0.2-0.2,0.5-0.3,0.7-0.3
	C141.1,139.4,141.3,139.5,141.3,139.7L141.3,139.7z M138.7,143.3c-0.6,0.2-1.1,0.5-1.1,0.9c0,0.4,0.4,0.6,1.1,0.6c0.7,0,1-0.2,1-0.6
	c0-0.2-0.2-0.4-0.4-0.6C139.2,143.6,138.9,143.4,138.7,143.3L138.7,143.3z M139.9,140c0-0.2-0.1-0.4-0.3-0.4c-0.4,0-1,1-1,1.6
	c0,0.2,0.1,0.4,0.3,0.4C139.4,141.7,139.9,140.7,139.9,140L139.9,140z"/>
<path class="st0" d="M145.3,142.6c0.2,0,0.4-0.3,0.7-0.6c0,0,0.1,0,0.1,0l0.1,0c0,0,0,0.1,0,0.1c-0.4,0.6-0.9,1-1.3,1
	c-0.2,0-0.3-0.1-0.3-0.3c0-0.2,0.1-0.4,0.2-0.9l0,0c-0.5,0.7-1,1.2-1.5,1.2c-0.3,0-0.5-0.2-0.5-0.7c0-1.3,1.3-3.1,2.3-3.1
	c0.3,0,0.5,0.2,0.6,0.4l0.1-0.2c0-0.1,0.1-0.1,0.2-0.1h0.3c0.1,0,0.1,0.1,0.1,0.2c-0.3,0.8-0.7,1.9-1,2.7
	C145.2,142.5,145.2,142.6,145.3,142.6L145.3,142.6z M143.4,142.2c0,0.2,0.1,0.4,0.3,0.4c0.4,0,1.2-1,1.5-1.6
	c0.1-0.3,0.2-0.6,0.2-0.9c0-0.3-0.2-0.5-0.4-0.5C144.3,139.6,143.4,141.3,143.4,142.2L143.4,142.2z"/>
<path class="st0" d="M149.7,140.3c0.1-0.2,0-0.3-0.1-0.3c-0.3,0-1.3,1-1.6,1.7c-0.1,0.2-0.2,0.4-0.3,0.7l-0.2,0.6
	c0,0.1-0.1,0.1-0.2,0.1h-0.3c-0.1,0-0.1-0.1-0.1-0.2c0.4-1,0.7-1.8,1-2.7c0-0.1,0-0.3-0.1-0.3c-0.1,0-0.4,0.3-0.7,0.6
	c0,0-0.1,0-0.1,0l-0.1,0c0,0,0-0.1,0-0.1c0.4-0.6,0.9-1.1,1.3-1.1c0.3,0,0.4,0.4,0.2,0.9l-0.3,0.8h0c0.7-0.9,1.4-1.7,2-1.7
	c0.3,0,0.4,0.4,0.2,0.9c-0.3,0.7-0.6,1.4-0.9,2.1c0,0.1,0,0.2,0.1,0.2c0.2,0,0.5-0.4,0.7-0.6c0-0.1,0.1-0.1,0.1,0l0.1,0
	c0,0,0,0.1,0,0.1c-0.3,0.5-0.9,1-1.3,1c-0.4,0-0.4-0.5-0.2-0.9C149.2,141.6,149.4,140.9,149.7,140.3L149.7,140.3z"/>
<path class="st0" d="M154.2,142c0-0.1,0.1-0.1,0.1,0l0.1,0c0,0,0,0.1,0,0.1c-0.2,0.4-0.8,1-1.3,1c-0.2,0-0.3-0.1-0.3-0.3
	c0-0.1,0.1-0.4,0.2-0.9l0,0c-0.4,0.5-1,1.2-1.5,1.2c-0.4,0-0.6-0.2-0.6-0.8c0-1.3,1.3-3,2.3-3c0.3,0,0.5,0.1,0.6,0.3l0.4-1.3
	c0.1-0.2,0-0.3-0.4-0.3c-0.1,0-0.1,0-0.1-0.1l0-0.1c0,0,0.1-0.1,0.1-0.1h1c0,0,0,0,0.1,0l0,0c0,0,0,0,0,0.1
	c-0.4,1.1-1.3,3.7-1.5,4.4c0,0.1,0,0.2,0.1,0.2C153.6,142.6,153.9,142.3,154.2,142L154.2,142z M153.5,140.2c0-0.3-0.2-0.5-0.4-0.5
	c-0.6,0-1.6,1.6-1.6,2.5c0,0.3,0.1,0.5,0.3,0.5c0.4,0,1.2-0.9,1.4-1.6C153.3,140.8,153.5,140.5,153.5,140.2L153.5,140.2z"/>
<path class="st0" d="M158,138.9c0.1-0.3,0-0.5-0.5-0.5c-0.1,0-0.1,0-0.1-0.1l0-0.1c0-0.1,0.1-0.1,0.2-0.1h1.8c1.4,0,2.3,0.8,2.3,2
	c0,1.6-1.3,2.9-3.2,2.9h-2.4c-0.1,0-0.1,0-0.1-0.1l0-0.1c0-0.1,0.1-0.1,0.2-0.1c0.5,0,0.6-0.1,0.7-0.5L158,138.9L158,138.9z
	 M158.6,142.8c1.6,0,2.3-1.4,2.3-2.7c0-0.9-0.6-1.6-1.7-1.6H159c-0.1,0-0.2,0-0.2,0.2l-1,3.6c-0.1,0.4,0,0.6,0.3,0.6L158.6,142.8
	L158.6,142.8z"/>
<path class="st0" d="M164.3,142c0,0,0.1,0,0.1,0l0.1,0c0,0,0,0.1,0,0.1c-0.3,0.5-0.8,1-1.4,1c-0.7,0-0.9-0.5-0.9-0.9
	c0-1.2,1.3-2.8,2.2-2.8c0.4,0,0.6,0.2,0.6,0.6c0,0.6-0.7,1.3-2.1,1.6c0,0.1,0,0.3,0,0.4c0,0.3,0.1,0.6,0.5,0.6
	C163.7,142.6,164,142.4,164.3,142L164.3,142z M163,141.3c0.9-0.2,1.4-0.8,1.4-1.3c0-0.2-0.1-0.3-0.2-0.3
	C163.9,139.7,163.3,140.5,163,141.3L163,141.3z"/>
<path class="st0" d="M165.1,142.6c0-0.2,0.1-0.4,0.4-0.4c0.2,0,0.3,0.1,0.3,0.4c0,0.2,0,0.3,0.2,0.3c0.3,0,0.5-0.3,0.5-0.6
	c0-0.7-0.6-1.2-0.6-1.8c0-0.6,0.4-1.1,1.1-1.1c0.4,0,0.8,0.2,0.8,0.6c0,0.2-0.1,0.3-0.3,0.3c-0.2,0-0.3-0.2-0.4-0.4
	c0-0.2-0.1-0.3-0.3-0.3c-0.2,0-0.4,0.2-0.4,0.5c0,0.7,0.6,1.2,0.6,2c0,0.6-0.5,1-1.2,1C165.4,143.1,165.1,142.9,165.1,142.6
	L165.1,142.6z"/>
<path class="st0" d="M169,140.2c0-0.1,0-0.2-0.1-0.2c-0.1,0-0.5,0.4-0.7,0.6c0,0-0.1,0-0.1,0l-0.1,0c0,0,0-0.1,0-0.1
	c0.4-0.6,0.9-1,1.3-1c0.3,0,0.4,0.4,0.2,0.9c-0.2,0.4-0.7,1.6-0.9,2c-0.1,0.2,0,0.2,0.1,0.2c0.2,0,0.5-0.4,0.7-0.6
	c0,0,0.1-0.1,0.1,0l0.1,0.1c0,0,0,0.1,0,0.1c-0.4,0.6-0.9,1-1.3,1c-0.4,0-0.4-0.4-0.1-1C168.4,141.6,168.9,140.5,169,140.2
	L169,140.2z M169.3,138.6c0-0.3,0.2-0.5,0.5-0.5c0.2,0,0.3,0.2,0.3,0.3c0,0.3-0.2,0.5-0.5,0.5C169.5,138.9,169.3,138.8,169.3,138.6
	L169.3,138.6z"/>
<path class="st0" d="M173.7,139.7c0,0.2-0.1,0.3-0.3,0.3c-0.1,0-0.2-0.1-0.3-0.1s-0.1-0.1-0.1-0.1c-0.1,0-0.1,0-0.2,0.1
	c0,0.1,0.1,0.3,0.1,0.4c0,0.6-0.4,1.4-1.2,1.6c-0.4,0.1-0.8,0.2-0.8,0.4c0,0.2,0.2,0.3,0.5,0.5c0.2,0.1,0.5,0.3,0.8,0.5
	c0.3,0.2,0.6,0.5,0.6,0.8c0,0.5-0.6,0.9-1.8,0.9c-1,0-1.6-0.4-1.6-0.8c0-0.5,0.8-0.9,1.5-1.1c-0.4-0.2-0.6-0.4-0.6-0.7
	c0-0.3,0.4-0.5,0.8-0.7c-0.3-0.1-0.5-0.5-0.5-0.8c0-0.9,0.8-1.6,1.4-1.6c0.3,0,0.6,0.1,0.7,0.3c0.2-0.2,0.5-0.3,0.7-0.3
	C173.5,139.4,173.7,139.5,173.7,139.7L173.7,139.7z M171.1,143.3c-0.6,0.2-1.1,0.5-1.1,0.9c0,0.4,0.4,0.6,1.1,0.6c0.7,0,1-0.2,1-0.6
	c0-0.2-0.2-0.4-0.4-0.6C171.6,143.6,171.3,143.4,171.1,143.3L171.1,143.3z M172.3,140c0-0.2-0.1-0.4-0.3-0.4c-0.4,0-1,1-1,1.6
	c0,0.2,0.1,0.4,0.3,0.4C171.8,141.7,172.3,140.7,172.3,140L172.3,140z"/>
<path class="st0" d="M176.6,140.3c0.1-0.2,0-0.3-0.1-0.3c-0.3,0-1.3,1-1.6,1.7c-0.1,0.2-0.2,0.4-0.3,0.7l-0.2,0.6
	c0,0.1-0.1,0.1-0.2,0.1h-0.3c-0.1,0-0.1-0.1-0.1-0.2c0.4-1,0.7-1.8,1-2.7c0-0.1,0-0.3-0.1-0.3c-0.1,0-0.4,0.3-0.7,0.6
	c0,0-0.1,0-0.1,0l-0.1,0c0,0,0-0.1,0-0.1c0.4-0.6,0.9-1.1,1.3-1.1c0.3,0,0.4,0.4,0.2,0.9L175,141h0c0.7-0.9,1.4-1.7,2-1.7
	c0.3,0,0.4,0.4,0.2,0.9c-0.3,0.7-0.6,1.4-0.9,2.1c0,0.1,0,0.2,0.1,0.2c0.2,0,0.5-0.4,0.7-0.6c0-0.1,0.1-0.1,0.1,0l0.1,0
	c0,0,0,0.1,0,0.1c-0.3,0.5-0.9,1-1.3,1c-0.4,0-0.4-0.5-0.2-0.9C176.1,141.6,176.3,140.9,176.6,140.3L176.6,140.3z"/>
</svg>
